<svg id="SvgjsSvg1222" width="911.5078125" height="579" xmlns="http://www.w3.org/2000/svg" version="1.1" xmlns:xlink="http://www.w3.org/1999/xlink" xmlns:svgjs="http://svgjs.com/svgjs"><defs id="SvgjsDefs1223"><marker id="SvgjsMarker1256" markerWidth="16" markerHeight="12" refX="16" refY="6" viewBox="0 0 16 12" orient="auto" markerUnits="userSpaceOnUse" stroke-dasharray="0,0"><path id="SvgjsPath1257" d="M0,2 L14,6 L0,11 L0,2" fill="#323232" stroke="#323232" stroke-width="2"></path></marker><marker id="SvgjsMarker1268" markerWidth="16" markerHeight="12" refX="16" refY="6" viewBox="0 0 16 12" orient="auto" markerUnits="userSpaceOnUse" stroke-dasharray="0,0"><path id="SvgjsPath1269" d="M0,2 L14,6 L0,11 L0,2" fill="#323232" stroke="#323232" stroke-width="2"></path></marker><marker id="SvgjsMarker1276" markerWidth="16" markerHeight="12" refX="16" refY="6" viewBox="0 0 16 12" orient="auto" markerUnits="userSpaceOnUse" stroke-dasharray="0,0"><path id="SvgjsPath1277" d="M0,2 L14,6 L0,11 L0,2" fill="#323232" stroke="#323232" stroke-width="2"></path></marker><marker id="SvgjsMarker1284" markerWidth="16" markerHeight="12" refX="16" refY="6" viewBox="0 0 16 12" orient="auto" markerUnits="userSpaceOnUse" stroke-dasharray="0,0"><path id="SvgjsPath1285" d="M0,2 L14,6 L0,11 L0,2" fill="#323232" stroke="#323232" stroke-width="2"></path></marker><marker id="SvgjsMarker1288" markerWidth="16" markerHeight="12" refX="16" refY="6" viewBox="0 0 16 12" orient="auto" markerUnits="userSpaceOnUse" stroke-dasharray="0,0"><path id="SvgjsPath1289" d="M0,2 L14,6 L0,11 L0,2" fill="#323232" stroke="#323232" stroke-width="2"></path></marker><marker id="SvgjsMarker1296" markerWidth="16" markerHeight="12" refX="16" refY="6" viewBox="0 0 16 12" orient="auto" markerUnits="userSpaceOnUse" stroke-dasharray="0,0"><path id="SvgjsPath1297" d="M0,2 L14,6 L0,11 L0,2" fill="#323232" stroke="#323232" stroke-width="2"></path></marker><marker id="SvgjsMarker1332" markerWidth="16" markerHeight="12" refX="10" refY="6" viewBox="0 0 16 12" orient="auto" markerUnits="userSpaceOnUse" stroke-dasharray="0,0"><path id="SvgjsPath1333" d="M0,3 L10,6 L0,9 L0,3" fill="#ff6666" stroke="#ff6666" stroke-width="1"></path></marker><marker id="SvgjsMarker1340" markerWidth="16" markerHeight="12" refX="10" refY="6" viewBox="0 0 16 12" orient="auto" markerUnits="userSpaceOnUse" stroke-dasharray="0,0"><path id="SvgjsPath1341" d="M0,3 L10,6 L0,9 L0,3" fill="#ff6666" stroke="#ff6666" stroke-width="1"></path></marker><marker id="SvgjsMarker1348" markerWidth="16" markerHeight="12" refX="10" refY="6" viewBox="0 0 16 12" orient="auto" markerUnits="userSpaceOnUse" stroke-dasharray="0,0"><path id="SvgjsPath1349" d="M0,3 L10,6 L0,9 L0,3" fill="#ff6666" stroke="#ff6666" stroke-width="1"></path></marker><marker id="SvgjsMarker1356" markerWidth="16" markerHeight="12" refX="10" refY="6" viewBox="0 0 16 12" orient="auto" markerUnits="userSpaceOnUse" stroke-dasharray="0,0"><path id="SvgjsPath1357" d="M0,3 L10,6 L0,9 L0,3" fill="#ff6666" stroke="#ff6666" stroke-width="1"></path></marker><marker id="SvgjsMarker1404" markerWidth="16" markerHeight="12" refX="0" refY="6" viewBox="0 0 16 12" orient="auto" markerUnits="userSpaceOnUse" stroke-dasharray="0,0"><path id="SvgjsPath1405" d="M15,1.5 L2,6 L15,10.5" fill="#323232" stroke="#323232" stroke-width="2"></path></marker><marker id="SvgjsMarker1406" markerWidth="16" markerHeight="12" refX="16" refY="6" viewBox="0 0 16 12" orient="auto" markerUnits="userSpaceOnUse" stroke-dasharray="0,0"><path id="SvgjsPath1407" d="M0,2 L14,6 L0,11 L0,2" fill="#323232" stroke="#323232" stroke-width="2"></path></marker><marker id="SvgjsMarker1410" markerWidth="16" markerHeight="12" refX="0" refY="6" viewBox="0 0 16 12" orient="auto" markerUnits="userSpaceOnUse" stroke-dasharray="0,0"><path id="SvgjsPath1411" d="M15,1.5 L2,6 L15,10.5" fill="#323232" stroke="#323232" stroke-width="2"></path></marker><marker id="SvgjsMarker1412" markerWidth="16" markerHeight="12" refX="16" refY="6" viewBox="0 0 16 12" orient="auto" markerUnits="userSpaceOnUse" stroke-dasharray="0,0"><path id="SvgjsPath1413" d="M0,2 L14,6 L0,11 L0,2" fill="#323232" stroke="#323232" stroke-width="2"></path></marker></defs><g id="SvgjsG1224" transform="translate(674,200)"><path id="SvgjsPath1225" d="M 0 4Q 0 0 4 0L 138 0Q 142 0 142 4L 142 154Q 142 158 138 158L 4 158Q 0 158 0 154Z" stroke-dasharray="10,6" stroke="rgba(255,102,102,1)" stroke-width="2" fill-opacity="1" fill="#ffffff"></path><g id="SvgjsG1226"><text id="SvgjsText1227" font-family="微软雅黑" text-anchor="middle" font-size="13px" width="122px" fill="#323232" font-weight="400" align="middle" lineHeight="125%" anchor="middle" family="微软雅黑" size="13px" weight="400" font-style="" opacity="1" y="69.375" transform="rotate(0)"></text></g></g><g id="SvgjsG1228" transform="translate(324.5,200)"><path id="SvgjsPath1229" d="M 0 4Q 0 0 4 0L 191 0Q 195 0 195 4L 195 344Q 195 348 191 348L 4 348Q 0 348 0 344Z" stroke-dasharray="10,6" stroke="rgba(255,102,102,1)" stroke-width="2" fill-opacity="1" fill="#ffffff"></path><g id="SvgjsG1230"><text id="SvgjsText1231" font-family="微软雅黑" text-anchor="middle" font-size="13px" width="175px" fill="#323232" font-weight="400" align="middle" lineHeight="125%" anchor="middle" family="微软雅黑" size="13px" weight="400" font-style="" opacity="1" y="164.375" transform="rotate(0)"></text></g></g><g id="SvgjsG1232" transform="translate(366.5,281)"><path id="SvgjsPath1233" d="M 0 0L 99 0L 99 56L 0 56Z" stroke="rgba(50,50,50,1)" stroke-width="2" fill-opacity="1" fill="#ffffff"></path><g id="SvgjsG1234"><text id="SvgjsText1235" font-family="微软雅黑" text-anchor="middle" font-size="16px" width="79px" fill="#323232" font-weight="400" align="middle" lineHeight="125%" anchor="middle" family="微软雅黑" size="16px" weight="400" font-style="" opacity="1" y="16" transform="rotate(0)"><tspan id="SvgjsTspan1236" dy="20" x="49.5"><tspan id="SvgjsTspan1237" style="text-decoration:;">控制器</tspan></tspan></text></g></g><g id="SvgjsG1238" transform="translate(695.5,269.5)"><path id="SvgjsPath1239" d="M 0 0L 99 0L 99 79L 0 79Z" stroke="rgba(50,50,50,1)" stroke-width="2" fill-opacity="1" fill="#ffffff"></path><g id="SvgjsG1240"><text id="SvgjsText1241" font-family="微软雅黑" text-anchor="middle" font-size="16px" width="79px" fill="#323232" font-weight="400" align="middle" lineHeight="125%" anchor="middle" family="微软雅黑" size="16px" weight="400" font-style="" opacity="1" y="7.5" transform="rotate(0)"><tspan id="SvgjsTspan1242" dy="20" x="49.5"><tspan id="SvgjsTspan1243" style="text-decoration:;">DCS</tspan></tspan><tspan id="SvgjsTspan1244" dy="20" x="49.5"><tspan id="SvgjsTspan1245" style="text-decoration:;">F/A-18</tspan></tspan><tspan id="SvgjsTspan1246" dy="20" x="49.5"><tspan id="SvgjsTspan1247" style="text-decoration:;">6Dof</tspan></tspan></text></g></g><g id="SvgjsG1248" transform="translate(360,431)"><path id="SvgjsPath1249" d="M 0 0L 124 0L 124 64L 0 64Z" stroke="rgba(50,50,50,1)" stroke-width="2" fill-opacity="1" fill="#ffffff"></path><g id="SvgjsG1250"><text id="SvgjsText1251" font-family="微软雅黑" text-anchor="middle" font-size="16px" width="104px" fill="#323232" font-weight="400" align="middle" lineHeight="125%" anchor="middle" family="微软雅黑" size="16px" weight="400" font-style="" opacity="1" y="20" transform="rotate(0)"><tspan id="SvgjsTspan1252" dy="20" x="62"><tspan id="SvgjsTspan1253" style="text-decoration:;">提前量计算器</tspan></tspan></text></g></g><g id="SvgjsG1254"><path id="SvgjsPath1255" d="M465.5 309L580.5 309L580.5 309L695.5 309" stroke="#323232" stroke-width="2" fill="none" marker-end="url(#SvgjsMarker1256)"></path><rect id="SvgjsRect1258" width="78" height="16" x="541.5" y="301" fill="#ffffff"></rect><text id="SvgjsText1259" font-family="微软雅黑" text-anchor="middle" font-size="13px" width="78px" fill="#323232" font-weight="400" align="top" lineHeight="16px" anchor="middle" family="微软雅黑" size="13px" weight="400" font-style="" opacity="1" y="299.375" transform="rotate(0)"><tspan id="SvgjsTspan1260" dy="16" x="580.5"><tspan id="SvgjsTspan1261" style="text-decoration:;">操纵（杆量）</tspan></tspan></text></g><g id="SvgjsG1262" transform="translate(226.5,288)"><path id="SvgjsPath1263" d="M 0 21C 0 -7 40 -7 40 21C 40 49 0 49 0 21Z" stroke="rgba(50,50,50,1)" stroke-width="2" fill-opacity="1" fill="#ffffff"></path><g id="SvgjsG1264"><text id="SvgjsText1265" font-family="微软雅黑" text-anchor="middle" font-size="13px" width="20px" fill="#323232" font-weight="400" align="middle" lineHeight="125%" anchor="middle" family="微软雅黑" size="13px" weight="400" font-style="" opacity="1" y="11.375" transform="rotate(0)"></text></g></g><g id="SvgjsG1266"><path id="SvgjsPath1267" d="M266.5 309L316.5 309L316.5 309L366.5 309" stroke="#323232" stroke-width="2" fill="none" marker-end="url(#SvgjsMarker1268)"></path><rect id="SvgjsRect1270" width="26" height="16" x="294" y="301" fill="#ffffff"></rect><text id="SvgjsText1271" font-family="微软雅黑" text-anchor="middle" font-size="13px" width="26px" fill="#323232" font-weight="400" align="top" lineHeight="16px" anchor="middle" family="微软雅黑" size="13px" weight="400" font-style="" opacity="1" y="299.375" transform="rotate(0)"><tspan id="SvgjsTspan1272" dy="16" x="307"><tspan id="SvgjsTspan1273" style="text-decoration:;">误差</tspan></tspan></text></g><g id="SvgjsG1274"><path id="SvgjsPath1275" d="M745 348.5L745 440L482 440" stroke="#323232" stroke-width="2" fill="none" marker-end="url(#SvgjsMarker1276)"></path><rect id="SvgjsRect1278" width="52" height="16" x="633.25" y="432" fill="#ffffff"></rect><text id="SvgjsText1279" font-family="微软雅黑" text-anchor="middle" font-size="13px" width="52px" fill="#323232" font-weight="400" align="top" lineHeight="16px" anchor="middle" family="微软雅黑" size="13px" weight="400" font-style="" opacity="1" y="430.375" transform="rotate(0)"><tspan id="SvgjsTspan1280" dy="16" x="659.25"><tspan id="SvgjsTspan1281" style="text-decoration:;">我机状态</tspan></tspan></text></g><g id="SvgjsG1282"><path id="SvgjsPath1283" d="M745 348.5L745 378.5L246.5 378.5L246.5 330" stroke="#323232" stroke-width="2" fill="none" marker-end="url(#SvgjsMarker1284)"></path></g><g id="SvgjsG1286"><path id="SvgjsPath1287" d="M360 463L196.5 463L196.5 309L226.5 309" stroke="#323232" stroke-width="2" fill="none" marker-end="url(#SvgjsMarker1288)"></path><rect id="SvgjsRect1290" width="65" height="16" x="229" y="455" fill="#ffffff"></rect><text id="SvgjsText1291" font-family="微软雅黑" text-anchor="middle" font-size="13px" width="65px" fill="#323232" font-weight="400" align="top" lineHeight="16px" anchor="middle" family="微软雅黑" size="13px" weight="400" font-style="" opacity="1" y="453.375" transform="rotate(0)"><tspan id="SvgjsTspan1292" dy="16" x="261.5"><tspan id="SvgjsTspan1293" style="text-decoration:;">期望姿态角</tspan></tspan></text></g><g id="SvgjsG1294"><path id="SvgjsPath1295" d="M816 279L846 279L846 463L484 463" stroke="#323232" stroke-width="2" fill="none" marker-end="url(#SvgjsMarker1296)"></path><rect id="SvgjsRect1298" width="52" height="16" x="746" y="455" fill="#ffffff"></rect><text id="SvgjsText1299" font-family="微软雅黑" text-anchor="middle" font-size="13px" width="52px" fill="#323232" font-weight="400" align="top" lineHeight="16px" anchor="middle" family="微软雅黑" size="13px" weight="400" font-style="" opacity="1" y="453.375" transform="rotate(0)"><tspan id="SvgjsTspan1300" dy="16" x="772"><tspan id="SvgjsTspan1301" style="text-decoration:;">敌机状态</tspan></tspan></text></g><g id="SvgjsG1302" transform="translate(364,196.5)"><path id="SvgjsPath1303" d="M 0 0L 120 0L 120 40L 0 40Z" stroke="none" fill="none"></path><g id="SvgjsG1304"><text id="SvgjsText1305" font-family="微软雅黑" text-anchor="middle" font-size="13px" width="120px" fill="#323232" font-weight="400" align="middle" lineHeight="125%" anchor="middle" family="微软雅黑" size="13px" weight="400" font-style="" opacity="1" y="10.375" transform="rotate(0)"><tspan id="SvgjsTspan1306" dy="16" x="60"><tspan id="SvgjsTspan1307" style="text-decoration:;">Python 飞控</tspan></tspan></text></g></g><g id="SvgjsG1308" transform="translate(685,196.5)"><path id="SvgjsPath1309" d="M 0 0L 120 0L 120 40L 0 40Z" stroke="none" fill="none"></path><g id="SvgjsG1310"><text id="SvgjsText1311" font-family="微软雅黑" text-anchor="middle" font-size="13px" width="120px" fill="#323232" font-weight="400" align="middle" lineHeight="125%" anchor="middle" family="微软雅黑" size="13px" weight="400" font-style="" opacity="1" y="10.375" transform="rotate(0)"><tspan id="SvgjsTspan1312" dy="16" x="60"><tspan id="SvgjsTspan1313" style="text-decoration:;">DCS lua</tspan></tspan></text></g></g><g id="SvgjsG1314" transform="translate(353,514)"><path id="SvgjsPath1315" d="M 0 0L 120 0L 120 40L 0 40Z" stroke="none" fill="none"></path><g id="SvgjsG1316"><text id="SvgjsText1317" font-family="微软雅黑" text-anchor="middle" font-size="13px" width="120px" fill="#323232" font-weight="400" align="middle" lineHeight="125%" anchor="middle" family="微软雅黑" size="13px" weight="400" font-style="" opacity="1" y="10.375" transform="rotate(0)"><tspan id="SvgjsTspan1318" dy="16" x="60"><tspan id="SvgjsTspan1319" style="text-decoration:;">Python</tspan></tspan></text></g></g><g id="SvgjsG1320" transform="translate(25,194)"><path id="SvgjsPath1321" d="M 0 4Q 0 0 4 0L 119.5 0Q 123.5 0 123.5 4L 123.5 356Q 123.5 360 119.5 360L 4 360Q 0 360 0 356Z" stroke-dasharray="10,6" stroke="rgba(255,102,102,1)" stroke-width="2" fill-opacity="1" fill="#ffffff"></path><g id="SvgjsG1322"><text id="SvgjsText1323" font-family="微软雅黑" text-anchor="middle" font-size="13px" width="104px" fill="#323232" font-weight="400" align="middle" lineHeight="125%" anchor="middle" family="微软雅黑" size="13px" weight="400" font-style="" opacity="1" y="154.375" transform="rotate(0)"><tspan id="SvgjsTspan1324" dy="16" x="62"><tspan id="SvgjsTspan1325" style="text-decoration:;">QT 控制中心</tspan></tspan><tspan id="SvgjsTspan1326" dy="16" x="62"><tspan id="SvgjsTspan1327" style="text-decoration:;">显示数据</tspan></tspan><tspan id="SvgjsTspan1328" dy="16" x="62"><tspan id="SvgjsTspan1329" style="text-decoration:;">发送指令</tspan></tspan></text></g></g><g id="SvgjsG1330"><path id="SvgjsPath1331" d="M815.5 246L886.5 246L886.5 523.0716332378224L518.2128712871287 523.0716332378224" stroke-dasharray="8,5" stroke="#ff6666" stroke-width="1" fill="none" marker-end="url(#SvgjsMarker1332)"></path><rect id="SvgjsRect1334" width="57" height="16" x="673" y="515" fill="#ffffff"></rect><text id="SvgjsText1335" font-family="微软雅黑" text-anchor="middle" font-size="13px" width="57px" fill="#323232" font-weight="400" align="top" lineHeight="16px" anchor="middle" family="微软雅黑" size="13px" weight="400" font-style="" opacity="1" y="513.375" transform="rotate(0)"><tspan id="SvgjsTspan1336" dy="16" x="701.5"><tspan id="SvgjsTspan1337" style="text-decoration:;">UDP recv</tspan></tspan></text></g><g id="SvgjsG1338"><path id="SvgjsPath1339" d="M518.5 232L596.5 232L596.5 232L674.5 232" stroke-dasharray="8,5" stroke="#ff6666" stroke-width="1" fill="none" marker-end="url(#SvgjsMarker1340)"></path><rect id="SvgjsRect1342" width="61" height="16" x="566" y="224" fill="#ffffff"></rect><text id="SvgjsText1343" font-family="微软雅黑" text-anchor="middle" font-size="13px" width="61px" fill="#323232" font-weight="400" align="top" lineHeight="16px" anchor="middle" family="微软雅黑" size="13px" weight="400" font-style="" opacity="1" y="222.375" transform="rotate(0)"><tspan id="SvgjsTspan1344" dy="16" x="596.5"><tspan id="SvgjsTspan1345" style="text-decoration:;">UDP send</tspan></tspan></text></g><g id="SvgjsG1346"><path id="SvgjsPath1347" d="M147.52371541501975 233.31034482758622L236.01185770750988 233.31034482758622L236.01185770750988 232L324.5 232" stroke-dasharray="8,5" stroke="#ff6666" stroke-width="1" fill="none" marker-end="url(#SvgjsMarker1348)"></path><rect id="SvgjsRect1350" width="61" height="16" x="205.51185770750988" y="224.6551724137931" fill="#ffffff"></rect><text id="SvgjsText1351" font-family="微软雅黑" text-anchor="middle" font-size="13px" width="61px" fill="#323232" font-weight="400" align="top" lineHeight="16px" anchor="middle" family="微软雅黑" size="13px" weight="400" font-style="" opacity="1" y="223.0301724137931" transform="rotate(0)"><tspan id="SvgjsTspan1352" dy="16" x="236.01185770750988"><tspan id="SvgjsTspan1353" style="text-decoration:;">UDP send</tspan></tspan></text></g><g id="SvgjsG1354"><path id="SvgjsPath1355" d="M324.5 524L236.5 524L236.5 524L148.5 524" stroke-dasharray="8,5" stroke="#ff6666" stroke-width="1" fill="none" marker-end="url(#SvgjsMarker1356)"></path><rect id="SvgjsRect1358" width="57" height="16" x="208" y="516" fill="#ffffff"></rect><text id="SvgjsText1359" font-family="微软雅黑" text-anchor="middle" font-size="13px" width="57px" fill="#323232" font-weight="400" align="top" lineHeight="16px" anchor="middle" family="微软雅黑" size="13px" weight="400" font-style="" opacity="1" y="514.375" transform="rotate(0)"><tspan id="SvgjsTspan1360" dy="16" x="236.5"><tspan id="SvgjsTspan1361" style="text-decoration:;">UDP recv</tspan></tspan></text></g><g id="SvgjsG1362" transform="translate(342.5,114)"><path id="SvgjsPath1363" d="M 0 4Q 0 0 4 0L 159 0Q 163 0 163 4L 163 66Q 163 70 159 70L 4 70Q 0 70 0 66Z" stroke="rgba(50,50,50,1)" stroke-width="2" fill-opacity="1" fill="#ffff99"></path><g id="SvgjsG1364"><text id="SvgjsText1365" font-family="微软雅黑" text-anchor="middle" font-size="17px" width="143px" fill="#323232" font-weight="400" align="middle" lineHeight="125%" anchor="middle" family="微软雅黑" size="17px" weight="400" font-style="" opacity="1" y="1.375" transform="rotate(0)"><tspan id="SvgjsTspan1366" dy="21" x="81.5"><tspan id="SvgjsTspan1367" style="text-decoration:;">服务器 飞控</tspan></tspan><tspan id="SvgjsTspan1368" dy="21" x="81.5"><tspan id="SvgjsTspan1369" style="text-decoration:;">IP: 127.0.0.1</tspan></tspan><tspan id="SvgjsTspan1370" dy="21" x="81.5"><tspan id="SvgjsTspan1371" style="text-decoration:;">port: 26489</tspan></tspan></text></g></g><g id="SvgjsG1372" transform="translate(36.75,114)"><path id="SvgjsPath1373" d="M 0 4Q 0 0 4 0L 96 0Q 100 0 100 4L 100 66Q 100 70 96 70L 4 70Q 0 70 0 66Z" stroke="rgba(0,0,0,1)" stroke-width="2" fill-opacity="1" fill="#ccffcc"></path><g id="SvgjsG1374"><text id="SvgjsText1375" font-family="微软雅黑" text-anchor="middle" font-size="16px" width="80px" fill="#323232" font-weight="400" align="middle" lineHeight="125%" anchor="middle" family="微软雅黑" size="16px" weight="400" font-style="" opacity="1" y="23" transform="rotate(0)"><tspan id="SvgjsTspan1376" dy="20" x="50"><tspan id="SvgjsTspan1377" style="text-decoration:;">客户端 QT</tspan></tspan></text></g></g><g id="SvgjsG1378" transform="translate(700,114)"><path id="SvgjsPath1379" d="M 0 4Q 0 0 4 0L 96 0Q 100 0 100 4L 100 66Q 100 70 96 70L 4 70Q 0 70 0 66Z" stroke="rgba(50,50,50,1)" stroke-width="2" fill-opacity="1" fill="#ccffcc"></path><g id="SvgjsG1380"><text id="SvgjsText1381" font-family="微软雅黑" text-anchor="middle" font-size="16px" width="80px" fill="#323232" font-weight="400" align="middle" lineHeight="125%" anchor="middle" family="微软雅黑" size="16px" weight="400" font-style="" opacity="1" y="13" transform="rotate(0)"><tspan id="SvgjsTspan1382" dy="20" x="50"><tspan id="SvgjsTspan1383" style="text-decoration:;">客户端 </tspan></tspan><tspan id="SvgjsTspan1384" dy="20" x="50"><tspan id="SvgjsTspan1385" style="text-decoration:;">DCS</tspan></tspan></text></g></g><g id="SvgjsG1386" transform="translate(128.5,134.5)"><path id="SvgjsPath1387" d="M 0 0L 20 0L 20 29L 0 29Z" stroke="rgba(50,50,50,1)" stroke-width="2" fill-opacity="1" fill="#ffffff"></path><g id="SvgjsG1388"><text id="SvgjsText1389" font-family="微软雅黑" text-anchor="middle" font-size="13px" width="0px" fill="#323232" font-weight="400" align="middle" lineHeight="125%" anchor="middle" family="微软雅黑" size="13px" weight="400" font-style="" opacity="1" y="4.875" transform="rotate(0)"></text></g></g><g id="SvgjsG1390" transform="translate(330.5,134.5)"><path id="SvgjsPath1391" d="M 0 0L 20 0L 20 29L 0 29Z" stroke="rgba(50,50,50,1)" stroke-width="2" fill-opacity="1" fill="#ffffff"></path><g id="SvgjsG1392"><text id="SvgjsText1393" font-family="微软雅黑" text-anchor="middle" font-size="13px" width="0px" fill="#323232" font-weight="400" align="middle" lineHeight="125%" anchor="middle" family="微软雅黑" size="13px" weight="400" font-style="" opacity="1" y="4.875" transform="rotate(0)"></text></g></g><g id="SvgjsG1394" transform="translate(692.5,134.5)"><path id="SvgjsPath1395" d="M 0 0L 20 0L 20 29L 0 29Z" stroke="rgba(50,50,50,1)" stroke-width="2" fill-opacity="1" fill="#ffffff"></path><g id="SvgjsG1396"><text id="SvgjsText1397" font-family="微软雅黑" text-anchor="middle" font-size="13px" width="0px" fill="#323232" font-weight="400" align="middle" lineHeight="125%" anchor="middle" family="微软雅黑" size="13px" weight="400" font-style="" opacity="1" y="4.875" transform="rotate(0)"></text></g></g><g id="SvgjsG1398" transform="translate(499.5,134.5)"><path id="SvgjsPath1399" d="M 0 0L 20 0L 20 29L 0 29Z" stroke="rgba(50,50,50,1)" stroke-width="2" fill-opacity="1" fill="#ffffff"></path><g id="SvgjsG1400"><text id="SvgjsText1401" font-family="微软雅黑" text-anchor="middle" font-size="13px" width="0px" fill="#323232" font-weight="400" align="middle" lineHeight="125%" anchor="middle" family="微软雅黑" size="13px" weight="400" font-style="" opacity="1" y="4.875" transform="rotate(0)"></text></g></g><g id="SvgjsG1402"><path id="SvgjsPath1403" d="M148.5 149L239.5 149L239.5 149L330.5 149" stroke="#323232" stroke-width="2" fill="none" marker-start="url(#SvgjsMarker1404)" marker-end="url(#SvgjsMarker1406)"></path></g><g id="SvgjsG1408"><path id="SvgjsPath1409" d="M519.5 149L606 149L606 149L692.5 149" stroke="#323232" stroke-width="2" fill="none" marker-start="url(#SvgjsMarker1410)" marker-end="url(#SvgjsMarker1412)"></path></g><g id="SvgjsG1414" transform="translate(36.75,25)"><path id="SvgjsPath1415" d="M 0 0L 819.75 0L 819.75 49L 0 49Z" stroke="rgba(0,0,0,1)" stroke-width="3" fill-opacity="1" fill="#ffffff"></path><g id="SvgjsG1416"><text id="SvgjsText1417" font-family="微软雅黑" text-anchor="middle" font-size="16px" width="800px" fill="#000000" font-weight="700" align="middle" lineHeight="125%" anchor="middle" family="微软雅黑" size="16px" weight="700" font-style="" opacity="1" y="12.5" transform="rotate(0)"><tspan id="SvgjsTspan1418" dy="20" x="410"><tspan id="SvgjsTspan1419" style="text-decoration:;">DCS 飞控架构</tspan></tspan></text></g></g><g id="SvgjsG1420" transform="translate(220.5,295.5)"><path id="SvgjsPath1421" d="M 0 0L 34 0L 34 27L 0 27Z" stroke="none" fill="none"></path><g id="SvgjsG1422"><text id="SvgjsText1423" font-family="微软雅黑" text-anchor="middle" font-size="13px" width="34px" fill="#323232" font-weight="400" align="middle" lineHeight="125%" anchor="middle" family="微软雅黑" size="13px" weight="400" font-style="" opacity="1" y="3.875" transform="rotate(0)"><tspan id="SvgjsTspan1424" dy="16" x="17"><tspan id="SvgjsTspan1425" style="text-decoration:;">+</tspan></tspan></text></g></g><g id="SvgjsG1426" transform="translate(229.5,306.5)"><path id="SvgjsPath1427" d="M 0 0L 34 0L 34 27L 0 27Z" stroke="none" fill="none"></path><g id="SvgjsG1428"><text id="SvgjsText1429" font-family="微软雅黑" text-anchor="middle" font-size="13px" width="34px" fill="#323232" font-weight="400" align="middle" lineHeight="125%" anchor="middle" family="微软雅黑" size="13px" weight="400" font-style="" opacity="1" y="3.875" transform="rotate(0)"><tspan id="SvgjsTspan1430" dy="16" x="17"><tspan id="SvgjsTspan1431" style="text-decoration:;">-</tspan></tspan></text></g></g></svg>